<svg width="528" height="47" viewBox="0 0 528 47" fill="none" xmlns="http://www.w3.org/2000/svg">
<path d="M90.375 14.375C90.375 13.8227 90.8227 13.375 91.375 13.375H108.625C109.177 13.375 109.625 13.8227 109.625 14.375V31.625C109.625 32.1773 109.177 32.625 108.625 32.625H91.375C90.8227 32.625 90.375 32.1773 90.375 31.625V14.375Z" fill="#F5DE19"/>
<path d="M103.306 28.4141C103.47 28.7472 103.725 29.0272 104.041 29.2219C104.358 29.4165 104.722 29.5178 105.094 29.5141C105.843 29.5141 106.322 29.1394 106.322 28.6203C106.322 28.0016 105.83 27.7802 105.005 27.4192L104.553 27.2254C103.246 26.6692 102.38 25.9727 102.38 24.5001C102.38 23.1437 103.411 22.1104 105.029 22.1104C105.553 22.0726 106.076 22.1898 106.533 22.4474C106.991 22.705 107.362 23.0916 107.602 23.5589L106.187 24.463C106.095 24.2313 105.935 24.033 105.728 23.8945C105.52 23.756 105.276 23.6838 105.026 23.6875C104.918 23.6766 104.808 23.6885 104.704 23.7224C104.6 23.7563 104.504 23.8115 104.423 23.8845C104.341 23.9574 104.276 24.0466 104.231 24.1462C104.186 24.2458 104.162 24.3537 104.161 24.463C104.161 25.0054 104.497 25.2254 105.273 25.563L105.725 25.7569C107.263 26.4162 108.132 27.0879 108.132 28.5983C108.132 30.227 106.852 31.1194 105.134 31.1194C104.465 31.162 103.797 31.01 103.212 30.6818C102.627 30.3535 102.15 29.8629 101.838 29.2693L103.306 28.4141ZM96.9159 28.5708C97.1998 29.0747 97.4583 29.501 98.0798 29.501C98.6738 29.501 99.0492 29.2686 99.0492 28.3646V22.2135H100.858V28.3886C100.858 30.2614 99.758 31.1139 98.1568 31.1139C97.5908 31.1448 97.0287 31.0038 96.5444 30.7093C96.0601 30.4148 95.6762 29.9806 95.4432 29.4639L96.9159 28.5708Z" fill="#292929"/>
<path d="M19.0576 30.7007L17.5128 13.375H34.4872L32.9403 30.6979L25.9897 32.625L19.0576 30.7007Z" fill="#E44F26"/>
<path d="M26 31.1524L31.6169 29.5952L32.9382 14.7919H26V31.1524Z" fill="#F1662A"/>
<path d="M26 21.2173H23.1881L22.9943 19.0414H26V16.9163H20.6719L20.7228 17.4869L21.2446 23.3424H26V21.2173Z" fill="#EBEBEB"/>
<path d="M26 26.7359L25.9904 26.7386L23.624 26.0999L23.4727 24.4052H21.3394L21.6371 27.741L25.9904 28.9496L26 28.9469V26.7359Z" fill="#EBEBEB"/>
<path d="M25.9924 21.2173V23.3424H28.6091L28.3629 26.0986L25.9924 26.7379V28.9489L30.3491 27.741L30.3807 27.3821L30.8799 21.7879L30.9321 21.2173H25.9924Z" fill="white"/>
<path d="M25.9924 16.9163V19.0414H31.1253L31.1679 18.5643L31.2649 17.4869L31.3157 16.9163H25.9924Z" fill="white"/>
<path d="M56.0576 30.7007L54.5135 13.375H71.4865L69.9403 30.6979L62.9897 32.625L56.0576 30.7007Z" fill="#1572B6"/>
<path d="M63 31.1524L68.6169 29.5952L69.9382 14.7919H63V31.1524Z" fill="#33A9DC"/>
<path d="M63 21.0688H65.8119L66.0057 18.8929H63V16.7678H68.3281L68.2773 17.3378L67.7554 23.1939H63V21.0688Z" fill="white"/>
<path d="M63.013 26.5874L63.0034 26.5901L60.637 25.9507L60.4858 24.2561H58.3525L58.6502 27.5925L63.0027 28.8011L63.013 28.7984V26.5874Z" fill="#EBEBEB"/>
<path d="M65.6311 23.1038L65.3753 25.9494L63.0055 26.5887V28.7997L67.3615 27.5925L67.3938 27.2336L67.763 23.1038H65.6311Z" fill="white"/>
<path d="M63.0076 16.7678V18.8929H57.8747L57.8321 18.4151L57.7351 17.3378L57.6843 16.7678H63.0076Z" fill="#EBEBEB"/>
<path d="M63 21.0688V23.1939H60.6632L60.6206 22.7161L60.5243 21.6388L60.4734 21.0688H63Z" fill="#EBEBEB"/>
<rect x="0.5" y="0.5" width="527" height="46" rx="8.5" stroke="#7B7575"/>
</svg>
