<svg width="528" height="47" viewBox="0 0 528 47" fill="none" xmlns="http://www.w3.org/2000/svg">
<path d="M9 0.5H519C523.694 0.5 527.5 4.30558 527.5 9V38C527.5 42.6944 523.694 46.5 519 46.5H8.99999C4.30557 46.5 0.5 42.6944 0.5 38V9C0.5 4.30558 4.30558 0.5 9 0.5Z" stroke="#7B7575"/>
<path d="M16 30.4212C16 31.8455 17.1546 33 18.5788 33H33.4211C34.8455 33 36 31.8454 36 30.4212V15.5789C36 14.1545 34.8454 13 33.4212 13H18.5789C17.1545 13 16 14.1546 16 15.5788V30.4211V30.4212Z" fill="#563D7C"/>
<path d="M24.2936 21.8467V19.0145H26.7866C27.0241 19.0145 27.253 19.0342 27.4735 19.0738C27.694 19.1134 27.8891 19.184 28.0587 19.2858C28.2282 19.3876 28.3639 19.5289 28.4657 19.7098C28.5674 19.8907 28.6184 20.1225 28.6184 20.4051C28.6184 20.9139 28.4657 21.2814 28.1604 21.5075C27.8552 21.7337 27.4651 21.8467 26.9902 21.8467H24.2936V21.8467ZM21.6309 16.9453V29.0547H27.499C28.0417 29.0547 28.5703 28.9869 29.0848 28.8512C29.5992 28.7155 30.0571 28.5063 30.4585 28.2237C30.8598 27.941 31.1793 27.5763 31.4167 27.1298C31.6542 26.6831 31.7729 26.1545 31.7729 25.544C31.7729 24.7864 31.5891 24.1391 31.2217 23.6021C30.8542 23.065 30.2973 22.6891 29.5511 22.4742C30.0938 22.2142 30.5037 21.8806 30.7808 21.4736C31.0577 21.0666 31.1962 20.5578 31.1962 19.9472C31.1962 19.3819 31.103 18.907 30.9164 18.5226C30.7298 18.1382 30.467 17.8301 30.1277 17.5983C29.7886 17.3665 29.3816 17.1997 28.9066 17.098C28.4318 16.9962 27.906 16.9453 27.3294 16.9453H21.6309V16.9453ZM24.2936 26.9855V23.6614H27.1937C27.7703 23.6614 28.2339 23.7942 28.5845 24.06C28.9349 24.3257 29.1102 24.7695 29.1102 25.3913C29.1102 25.708 29.0565 25.968 28.9491 26.1715C28.8416 26.375 28.6975 26.5362 28.5166 26.6548C28.3357 26.7736 28.1265 26.8584 27.8891 26.9093C27.6516 26.9601 27.4029 26.9855 27.1428 26.9855H24.2936V26.9855Z" fill="white"/>
<rect x="51" y="17" width="55" height="14.2857" rx="2" fill="white"/>
<g clip-path="url(#clip0)">
<path fill-rule="evenodd" clip-rule="evenodd" d="M100.377 19.2272L102.349 19.2381C102.349 19.2381 98.6823 24.2224 98.3829 24.6286C98.2857 24.7602 98.138 24.902 98.063 25.0779C97.8736 25.52 97.6792 26.4897 97.6792 26.4897L95.8746 26.4987C95.8746 26.4987 96.1554 25.4879 96.1438 24.9495C96.1337 24.4792 95.8943 24.0094 95.76 23.5377C95.6243 23.0602 95.4401 22.1258 95.4401 22.1258H97.2954L97.5513 23.1527L100.377 19.2272" fill="#1A1918"/>
<path fill-rule="evenodd" clip-rule="evenodd" d="M96.6422 20.2784C97.0062 20.4985 97.2296 21.7127 97.2296 21.7127C97.2296 21.7127 95.3251 21.7409 94.2887 21.7409H93.3931L92.3055 26.4897H90.6422C90.6422 26.4897 91.6773 21.3289 91.9217 20.3933C92.0009 20.0903 92.4642 20.1423 93.2466 20.1423H94.4959C95.3027 20.1423 96.2457 20.039 96.6422 20.2784" fill="#1A1918"/>
<path fill-rule="evenodd" clip-rule="evenodd" d="M88.8989 22.5912C88.8989 22.5912 88.9507 22.2864 88.723 21.9333C88.5284 21.6324 88.3488 21.5624 87.8369 21.5463C86.3918 21.5008 86.4199 22.5751 86.4199 22.5751L88.8989 22.5912ZM90.4662 21.3609C90.6779 22.1272 90.2743 23.9279 90.2743 23.9279C90.2743 23.9279 88.1663 23.8926 87.0117 23.9279C86.6527 23.9389 86.2229 23.8887 86.116 24.0562C85.9657 24.291 86.171 24.6525 86.345 24.8051C86.5453 24.9809 86.9354 25.001 87.0757 25.0188C88.0128 25.1382 89.9742 25.0496 89.9742 25.0496L89.6345 26.5589C89.6345 26.5589 86.8627 26.6983 85.4763 26.3664C85.2026 26.301 84.9459 26.1688 84.7726 25.9814C84.7252 25.9301 84.6842 25.8602 84.6394 25.7998C84.6037 25.7516 84.4995 25.5932 84.4527 25.4679C84.136 24.6215 84.4898 23 84.8366 22.131C84.8768 22.0303 84.9273 21.9026 84.9806 21.7941C85.047 21.6587 85.1033 21.506 85.1564 21.4251C85.1922 21.3693 85.2364 21.3333 85.2736 21.2807C85.3164 21.2184 85.3662 21.1581 85.4123 21.1043C85.5403 20.9554 85.6855 20.8501 85.8602 20.7193C86.4378 20.2854 87.4831 19.9485 88.7389 20.0775C89.2117 20.1262 89.9258 20.2956 90.2743 20.7834C90.3677 20.9136 90.4138 21.1723 90.4662 21.361V21.3609Z" fill="#1A1918"/>
<path fill-rule="evenodd" clip-rule="evenodd" d="M82.8375 20.1364L84.4503 20.1269C84.4503 20.1269 83.5514 24.404 83.0934 26.4897H81.238C79.9414 26.4897 78.7867 26.6508 78.2954 25.7195C77.8188 24.8154 78.2737 23.3285 78.4873 22.3183C78.6383 21.6034 78.9563 20.1422 78.9563 20.1422L80.6273 20.1269C80.6273 20.1269 80.1551 22.4018 79.9586 23.5377C79.8883 23.9446 79.7432 24.3277 79.8947 24.6285C80.0387 24.9149 80.2402 24.9354 80.8543 24.9495C81.0488 24.9541 81.686 24.9495 81.686 24.9495L82.8375 20.1364" fill="#1A1918"/>
<path fill-rule="evenodd" clip-rule="evenodd" d="M75.2886 23.2167C75.4574 22.6149 75.7037 21.9623 75.6724 21.4199C75.6385 20.8398 75.1537 20.3117 74.8408 20.2007C73.8985 19.867 73.0163 20.3335 72.6657 20.714C72.2121 21.2069 72.0585 21.7826 71.898 22.5752C71.7785 23.1635 71.6805 23.7847 71.898 24.2436C72.283 25.0548 73.4839 24.8776 74.7768 24.8854C74.9687 24.3695 75.1273 23.79 75.2886 23.2167ZM77.5277 20.8424C77.7118 22.1861 77.005 23.6693 76.5181 24.9591C77.0146 25.0041 77.4497 24.9522 77.481 24.9893C77.5136 25.0374 77.1482 26.5288 77.0209 26.5327C76.6269 26.543 75.3213 26.5539 74.7768 26.5539C73.0002 26.5539 71.3382 26.67 70.4907 25.7838C70.1465 25.4238 69.9085 24.8063 69.8508 24.372C69.7549 23.6468 69.8752 22.8484 70.0428 22.1901C70.1945 21.5958 70.3888 21.0349 70.6826 20.5215C71.4291 19.2143 72.7278 18.244 74.9047 18.468C75.327 18.5116 75.9334 18.6971 76.3122 18.9172C76.3383 18.9326 76.4299 19.0058 76.4509 19.0186C76.9628 19.3453 77.4291 20.1249 77.5277 20.8424V20.8424Z" fill="#1A1918"/>
<path fill-rule="evenodd" clip-rule="evenodd" d="M69.6673 20.1442C69.5598 20.6351 69.4524 21.1916 69.3391 21.6767H67.5479C67.6866 21.1389 67.7929 20.6043 67.9317 20.1365C68.5049 20.1365 69.0378 20.1442 69.6673 20.1442" fill="#1A1918"/>
<path fill-rule="evenodd" clip-rule="evenodd" d="M67.4839 22.1259H69.2112C68.9854 23.3799 68.5382 25.4026 68.1876 26.8106C67.9682 27.6917 67.8217 28.3347 67.228 28.7999C67.1749 28.8417 67.1442 28.8218 67.1 28.8641C66.9906 28.9688 66.4846 29.0901 66.2045 29.1208C65.749 29.1703 65.234 29.1273 64.6742 29.1157C64.8207 28.5786 64.9864 27.9336 65.117 27.4522C66.4816 27.6179 66.5161 26.3241 66.7802 25.0779C66.9331 24.3578 67.3963 22.4147 67.4839 22.1259" fill="#1A1918"/>
<path fill-rule="evenodd" clip-rule="evenodd" d="M63.4535 25.3988L63.4165 25.495C62.7858 26.7272 61.6681 27.4831 60.0739 27.5164C59.3286 27.5318 58.6185 27.34 58.1547 27.1314C57.1536 26.6802 56.3116 25.8435 55.8518 24.9495C55.1921 23.668 55.0732 21.8852 56.4447 20.5537C56.4659 20.5537 56.2783 20.8424 56.2995 20.8424L56.2618 20.9656C55.2734 24.0696 58.3185 26.7297 61.2785 26.4255C61.9899 26.3523 62.897 25.9615 63.4535 25.3988Z" fill="#21609B"/>
<path fill-rule="evenodd" clip-rule="evenodd" d="M61.6623 24.1153C62.407 24.1203 63.1849 23.7712 63.6455 23.281C63.2425 24.3072 62.0756 24.9668 60.5109 24.757C59.2007 24.5812 57.9526 23.2586 57.824 21.9333C57.73 20.9689 58.0651 20.3933 58.6173 19.695C58.4254 20.0602 58.3536 20.3418 58.3358 20.5215C58.126 22.6078 59.9972 24.1043 61.6623 24.1153" fill="#21609B"/>
<path fill-rule="evenodd" clip-rule="evenodd" d="M63.5707 21.5239C63.4549 21.7903 62.7884 22.2933 62.494 22.3562C61.3284 22.6053 60.582 22.0508 60.1909 21.4199C60.1328 21.3257 60.0254 21.0684 60.0061 21.0029C59.8545 20.4856 59.9242 19.7033 60.3766 19.2984C60.2403 19.6834 60.2204 20.1307 60.2921 20.4214C60.3356 20.5972 60.468 20.9041 60.6005 21.0972C60.8415 21.4488 60.9945 21.5342 61.3041 21.721C61.4436 21.8051 61.5932 21.8725 61.6579 21.891C61.9515 21.9777 62.5715 22.2061 63.5708 21.5239" fill="#21609B"/>
</g>
<defs>
<clipPath id="clip0">
<rect width="47.1429" height="10.7143" fill="white" transform="translate(55.2857 18.4286)"/>
</clipPath>
</defs>
</svg>
