<svg width="528" height="47" viewBox="0 0 528 47" fill="none" xmlns="http://www.w3.org/2000/svg">
<g clip-path="url(#clip0)">
<path d="M35.6417 22.6538L27.3461 14.3586C26.8686 13.8809 26.0938 13.8809 25.6158 14.3586L23.8931 16.0812L26.0784 18.2665C26.5862 18.0949 27.1685 18.21 27.5733 18.6148C27.98 19.0222 28.0943 19.6094 27.9185 20.1189L30.0245 22.2249C30.534 22.0494 31.1219 22.1629 31.5288 22.5706C32.0976 23.1391 32.0976 24.0605 31.5288 24.6294C30.96 25.1983 30.0385 25.1983 29.4693 24.6294C29.0415 24.2011 28.9359 23.5729 29.1524 23.0458L27.1885 21.0819L27.1882 26.2502C27.3306 26.3206 27.4606 26.4136 27.5733 26.5256C28.142 27.0941 28.142 28.0156 27.5733 28.5849C27.0044 29.1536 26.0825 29.1536 25.5144 28.5849C24.9457 28.0156 24.9457 27.0942 25.5144 26.5257C25.6507 26.3893 25.8127 26.2813 25.991 26.2079V20.9914C25.8125 20.9185 25.6504 20.8105 25.5144 20.6737C25.0835 20.2433 24.9799 19.6111 25.2007 19.082L23.0466 16.9276L17.3585 22.6154C16.8805 23.0936 16.8805 23.8685 17.3585 24.3463L25.6542 32.6416C26.1318 33.1194 26.9065 33.1194 27.3847 32.6416L35.6416 24.3848C36.1194 23.9069 36.1194 23.1315 35.6416 22.6538" fill="#DE4C36"/>
</g>
<g clip-path="url(#clip1)">
<path d="M67.9442 19.6342L67.9361 19.6308C67.9312 19.6293 67.9266 19.6268 67.9228 19.6233C67.9163 19.6163 67.9114 19.6078 67.9086 19.5985C67.9058 19.5893 67.9052 19.5795 67.9068 19.57L68.3508 16.8584L70.433 18.9388L68.2675 19.8591C68.2615 19.8616 68.2551 19.8627 68.2486 19.8626H68.24C68.2357 19.8598 68.2318 19.8565 68.2284 19.8528C68.1478 19.7632 68.0515 19.6891 67.9442 19.6342V19.6342ZM70.9643 19.469L73.1906 21.6929C73.653 22.1553 73.8846 22.386 73.969 22.6534C73.9816 22.6929 73.9919 22.7325 74 22.7733L68.6794 20.5224C68.6765 20.5212 68.6736 20.5201 68.6708 20.519C68.6494 20.5104 68.6248 20.5006 68.6248 20.4788C68.6248 20.457 68.65 20.4467 68.6713 20.4381L68.6781 20.4352L70.9643 19.469ZM73.9093 23.4871C73.7944 23.7028 73.5703 23.9266 73.1912 24.3058L70.6811 26.8126L67.4346 26.1373L67.4174 26.1339C67.3887 26.1292 67.3582 26.1241 67.3582 26.0983C67.3459 25.9645 67.3061 25.8346 67.2414 25.7169C67.1766 25.5991 67.0883 25.4959 66.982 25.4138C66.9688 25.4006 66.9723 25.3799 66.9762 25.361C66.9762 25.3581 66.9762 25.3553 66.9774 25.353L67.588 21.6086L67.5903 21.5959C67.5937 21.5672 67.5989 21.534 67.6247 21.534C67.7556 21.5177 67.8818 21.4757 67.9962 21.4101C68.1106 21.3446 68.2109 21.257 68.2911 21.1524C68.2962 21.1467 68.2997 21.1404 68.3066 21.1369C68.3249 21.1284 68.3468 21.1369 68.3658 21.1449L73.9087 23.4871H73.9093V23.4871ZM70.1039 27.3892L65.9763 31.5124L66.6827 27.1747L66.6839 27.1689C66.6844 27.1633 66.6856 27.1577 66.6873 27.1523C66.6931 27.1386 66.7079 27.1328 66.7224 27.1271L66.7293 27.1241C66.8839 27.0582 67.0208 26.9566 67.1285 26.8276C67.1423 26.8115 67.1589 26.7959 67.1802 26.7931C67.1857 26.7922 67.1913 26.7922 67.1968 26.7931L70.1033 27.3898L70.1039 27.3892H70.1039ZM65.1025 32.3851L64.6373 32.8498L59.4936 25.4241C59.4917 25.4214 59.4898 25.4187 59.4878 25.416C59.4798 25.4051 59.4711 25.3943 59.473 25.3817C59.4735 25.3725 59.4792 25.3645 59.4856 25.3576L59.4913 25.3501C59.5067 25.3271 59.52 25.3041 59.5344 25.2795L59.5458 25.2595L59.5475 25.2577C59.5556 25.244 59.563 25.2308 59.5769 25.2233C59.5889 25.2175 59.6056 25.2198 59.6188 25.2227L65.3174 26.3966C65.3334 26.3992 65.3483 26.4056 65.361 26.4155C65.3685 26.4231 65.3702 26.431 65.372 26.4402C65.4118 26.5905 65.4858 26.7296 65.5882 26.8465C65.6906 26.9635 65.8187 27.0552 65.9624 27.1144C65.9785 27.1224 65.9716 27.1402 65.9642 27.1591C65.9604 27.1674 65.9576 27.1761 65.9556 27.185C65.8838 27.621 65.2681 31.3724 65.1025 32.3851V32.3851ZM64.1307 33.3553C63.7878 33.6944 63.5856 33.8739 63.357 33.9463C63.1316 34.0175 62.8897 34.0175 62.6643 33.9463C62.3966 33.8613 62.1651 33.6307 61.7027 33.1682L56.5372 28.0083L57.8864 25.9181C57.8921 25.9076 57.8999 25.8984 57.9094 25.8911C57.9238 25.8808 57.9445 25.8854 57.9617 25.8911C58.2713 25.9844 58.6038 25.9676 58.9025 25.8435C58.918 25.8378 58.9335 25.8338 58.9456 25.8447C58.9517 25.8502 58.9571 25.8563 58.9617 25.863L64.1307 33.3559V33.3553V33.3553ZM56.0391 27.5109L54.8542 26.3272L57.1942 25.33C57.2002 25.3274 57.2067 25.326 57.2132 25.326C57.2327 25.326 57.2443 25.3455 57.2546 25.3633C57.2781 25.3994 57.303 25.4346 57.3293 25.4689L57.3367 25.478C57.3436 25.4878 57.339 25.4975 57.3322 25.5067L56.0397 27.5109H56.0391ZM54.3298 25.8034L52.8306 24.3058C52.5755 24.0511 52.3906 23.8663 52.2619 23.7074L56.8203 24.6519L56.8375 24.6547C56.8657 24.6593 56.8968 24.6644 56.8968 24.6908C56.8968 24.7195 56.8629 24.7327 56.8341 24.7436L56.8209 24.7493L54.3298 25.8034V25.8034ZM52 22.9373C52.0052 22.8409 52.0226 22.7455 52.0517 22.6534C52.1367 22.386 52.3676 22.1553 52.8306 21.6929L54.7491 19.7765C55.6324 21.0571 56.5181 22.336 57.4062 23.6133C57.4217 23.6339 57.4389 23.6569 57.4212 23.6741C57.3373 23.7665 57.2534 23.8674 57.1943 23.9771C57.1879 23.9911 57.178 24.0034 57.1655 24.0126C57.1581 24.0172 57.1501 24.0155 57.1415 24.0138H57.1403L52 22.9368V22.9374V22.9373ZM55.2626 19.2635L57.8422 16.6868C58.0845 16.7929 58.9669 17.1653 59.756 17.498C60.3535 17.7506 60.898 17.9801 61.0692 18.0546C61.0863 18.0615 61.1019 18.0684 61.1094 18.0856C61.1139 18.0959 61.1117 18.1091 61.1094 18.12C61.0685 18.3061 61.0746 18.4993 61.1271 18.6824C61.1795 18.8655 61.2767 19.0327 61.4098 19.1689C61.427 19.1861 61.4098 19.2107 61.3949 19.232L61.3868 19.244L58.7676 23.2966C58.7607 23.3081 58.7543 23.3178 58.7428 23.3253C58.7291 23.3339 58.7096 23.3298 58.6934 23.3259C58.5915 23.2992 58.4868 23.285 58.3815 23.2834C58.2874 23.2834 58.1851 23.3006 58.0817 23.3195H58.0811C58.0697 23.3212 58.0593 23.3235 58.0502 23.3167C58.04 23.3084 58.0313 23.2985 58.0243 23.2874L55.2626 19.2635ZM58.3632 16.1663L61.7028 12.8305C62.1651 12.3686 62.3966 12.1374 62.6642 12.053C62.8897 11.9818 63.1316 11.9818 63.357 12.053C63.6247 12.1374 63.8561 12.3686 64.3185 12.8305L65.0423 13.5535L62.6672 17.2278C62.6613 17.2385 62.6533 17.2479 62.6436 17.2553C62.6293 17.2651 62.6092 17.2611 62.5919 17.2553C62.4046 17.1986 62.2064 17.1882 62.0142 17.2252C61.8221 17.2622 61.6418 17.3454 61.489 17.4677C61.4736 17.4837 61.4505 17.4745 61.431 17.466C61.1208 17.3311 58.7084 16.3127 58.3632 16.1664L58.3632 16.1663ZM65.5466 14.0572L67.7397 16.2478L67.2112 19.5172V19.5258C67.2107 19.5332 67.2092 19.5406 67.2066 19.5476C67.2009 19.559 67.1894 19.5614 67.1779 19.5648C67.0649 19.599 66.9585 19.652 66.8631 19.7215C66.859 19.7244 66.8552 19.7276 66.8516 19.7312C66.8453 19.7381 66.839 19.7444 66.8287 19.7455C66.8203 19.7458 66.8119 19.7444 66.8039 19.7415L63.4621 18.3232L63.4558 18.3203C63.4345 18.3117 63.4092 18.3014 63.4092 18.2795C63.3896 18.0935 63.3288 17.9141 63.2312 17.7545C63.2151 17.7281 63.1973 17.7006 63.2111 17.6737L65.5466 14.0572V14.0572ZM63.2881 18.995L66.4208 20.3204C66.438 20.3284 66.457 20.3358 66.4645 20.3536C66.4675 20.3643 66.4675 20.3756 66.4645 20.3863C66.4553 20.4323 66.4473 20.4844 66.4473 20.5373V20.625C66.4473 20.6468 66.4249 20.656 66.4042 20.6645L66.3979 20.6669C65.9016 20.8786 59.4304 23.635 59.4206 23.635C59.4109 23.635 59.4005 23.635 59.3908 23.6253C59.3736 23.6081 59.3908 23.584 59.4063 23.5621L59.4143 23.5507L61.9888 19.5688L61.9933 19.5619C62.0083 19.5377 62.0256 19.5108 62.0531 19.5108L62.0789 19.5148C62.1375 19.5228 62.1893 19.5303 62.2415 19.5303C62.6321 19.5303 62.994 19.3403 63.2123 19.0156C63.2174 19.007 63.224 18.9993 63.2318 18.9926C63.2472 18.9812 63.2703 18.987 63.2881 18.995V18.995ZM59.7003 24.265L66.754 21.2602C66.754 21.2602 66.7643 21.2602 66.7741 21.27C66.8125 21.3084 66.8453 21.3342 66.8769 21.3583L66.8924 21.368C66.9068 21.3761 66.9212 21.3852 66.9223 21.4002C66.9223 21.4059 66.9223 21.4094 66.9212 21.4145L66.3168 25.1222L66.3145 25.1372C66.3106 25.1658 66.3065 25.1985 66.2795 25.1985C66.1185 25.2094 65.9625 25.2593 65.8251 25.3439C65.6877 25.4286 65.573 25.5455 65.4909 25.6845L65.488 25.6891C65.48 25.7023 65.4725 25.7148 65.4593 25.7217C65.4472 25.7276 65.4318 25.7252 65.4191 25.7224L59.794 24.5634C59.7883 24.5622 59.7067 24.2656 59.7003 24.265V24.265Z" fill="url(#paint0_radial)"/>
</g>
<path d="M89 29.9504L89.1275 29.7726L95.1428 18.3616L95.1555 18.2408L92.5042 13.2606C92.4556 13.1695 92.3797 13.096 92.2871 13.0505C92.1945 13.005 92.0899 12.9897 91.9881 13.0069C91.8863 13.024 91.7926 13.0728 91.72 13.1462C91.6475 13.2196 91.5998 13.3139 91.5839 13.4159L89 29.9504Z" fill="#FFC24A"/>
<path d="M89.075 29.8154L89.171 29.6279L95.124 18.3353L92.4794 13.3356C92.4357 13.2487 92.3651 13.1782 92.2781 13.1347C92.1911 13.0913 92.0923 13.0772 91.9966 13.0946C91.9009 13.112 91.8134 13.16 91.7472 13.2313C91.6811 13.3026 91.6398 13.3934 91.6296 13.4901L89.075 29.8154Z" fill="#FFA712"/>
<path d="M97.0883 22.0075L99.0624 19.9824L97.0876 16.2165C97.0441 16.1354 96.9795 16.0677 96.9006 16.0205C96.8216 15.9732 96.7314 15.9483 96.6394 15.9483C96.5475 15.9483 96.4572 15.9732 96.3783 16.0205C96.2994 16.0677 96.2347 16.1354 96.1913 16.2165L95.136 18.2281V18.3998L97.0883 22.0075Z" fill="#F4BD62"/>
<path d="M97.0531 21.925L98.9724 19.9599L97.0531 16.2997C97.0217 16.2205 96.968 16.1521 96.8986 16.1026C96.8292 16.0532 96.7469 16.025 96.6618 16.0212C96.5766 16.0175 96.4922 16.0385 96.4187 16.0816C96.3452 16.1248 96.2858 16.1883 96.2476 16.2645L95.187 18.3113L95.1555 18.4156L97.0531 21.925Z" fill="#FFA50E"/>
<path d="M89.0015 29.9511L89.0592 29.8926L89.2685 29.8079L96.9638 22.141L97.0613 21.8755L95.142 18.2168L89.0015 29.9511V29.9511Z" fill="#F6820C"/>
<path d="M97.3344 33.8175L104.301 29.9331L102.31 17.6843C102.296 17.598 102.258 17.5172 102.201 17.4509C102.144 17.3847 102.069 17.3354 101.986 17.3086C101.903 17.2818 101.814 17.2784 101.729 17.2989C101.644 17.3194 101.566 17.363 101.504 17.4248L89 29.9504L95.9251 33.8168C96.1404 33.9369 96.3828 34 96.6293 34C96.8759 34 97.1183 33.9369 97.3336 33.8168" fill="#FDE068"/>
<path d="M104.237 29.9009L102.263 17.7443C102.259 17.6617 102.231 17.582 102.183 17.5153C102.134 17.4486 102.066 17.3978 101.989 17.3695C101.911 17.3411 101.827 17.3365 101.746 17.3561C101.666 17.3756 101.593 17.4186 101.538 17.4795L89.075 29.9271L95.9235 33.7523C96.1371 33.8714 96.3776 33.934 96.6222 33.934C96.8667 33.934 97.1072 33.8714 97.3208 33.7523L104.237 29.9009Z" fill="#FCCA3F"/>
<path d="M97.3344 33.7005C97.1191 33.8207 96.8766 33.8837 96.6301 33.8837C96.3836 33.8837 96.1411 33.8207 95.9258 33.7005L89.057 29.8919L89 29.9504L95.9251 33.8168C96.1404 33.9369 96.3828 34 96.6293 34C96.8759 34 97.1183 33.9369 97.3336 33.8168L104.301 29.9331L104.283 29.8281L97.3344 33.7005Z" fill="#EEAB37"/>
<rect x="0.5" y="0.5" width="527" height="46" rx="8.5" stroke="#7B7575"/>
<defs>
<radialGradient id="paint0_radial" cx="0" cy="0" r="1" gradientUnits="userSpaceOnUse" gradientTransform="translate(63 0.999569) scale(22)">
<stop stop-color="#20C6B7"/>
<stop offset="1" stop-color="#4D9ABF"/>
</radialGradient>
<clipPath id="clip0">
<rect width="19" height="19" fill="white" transform="translate(17 14)"/>
</clipPath>
<clipPath id="clip1">
<rect width="22" height="22" fill="white" transform="translate(52 12)"/>
</clipPath>
</defs>
</svg>
