<svg width="15" height="15" viewBox="0 0 15 15" fill="none" xmlns="http://www.w3.org/2000/svg">
<g clip-path="url(#clip0)">
<circle cx="7.5" cy="7.5" r="4.5" fill="white"/>
<path fill-rule="evenodd" clip-rule="evenodd" d="M1.02044 4.96375C-0.340471 6.32465 -0.340471 8.53089 1.02044 9.89168L4.96263 13.8339C6.32354 15.1947 8.52977 15.1947 9.89057 13.8339L13.8328 9.89168C15.1936 8.53077 15.1936 6.32448 13.8328 4.96375L9.89057 1.02155C8.52966 -0.339184 6.32337 -0.339184 4.96263 1.02155L1.02038 4.96375H1.02044ZM9.15131 9.15254C10.1039 8.19987 10.1039 6.6555 9.15131 5.70301C8.19876 4.75034 6.65438 4.75034 5.70189 5.70301C4.74923 6.65561 4.74923 8.19987 5.70189 9.15254C6.6545 10.105 8.19876 10.105 9.15142 9.15254H9.15131V9.15254Z" fill="#2962FF"/>
</g>
<defs>
<clipPath id="clip0">
<rect width="14.8537" height="14.8537" fill="white"/>
</clipPath>
</defs>
</svg>
