<svg width="97" height="22" viewBox="0 0 97 22" fill="none" xmlns="http://www.w3.org/2000/svg">
<rect width="97" height="22" rx="5" fill="#FCD755"/>
<g clip-path="url(#clip0)">
<path d="M7.0237 3.99999L6.31539 5.63406H5.26233V7.10362H5.66527L6.07783 9.71768H5.43339L6.28564 14.5184L6.83208 14.5118L7.38158 18H12.5839L12.6202 17.7677L13.133 14.5114L13.6527 14.5179L14.5028 9.71725H13.8872L14.2971 7.10318H14.7395V5.63362H13.6208L12.9098 3.99956L7.0237 3.99999ZM7.3317 4.46943H12.6066L13.0551 5.50849H6.87977L7.3317 4.46943ZM5.72783 6.10131H14.27V6.63856H5.72783V6.10131ZM5.99208 10.1845H13.9471L13.2611 14.0446L9.96414 14.01L6.67808 14.0446L5.99208 10.1845Z" fill="black"/>
</g>
<path d="M27.488 14.264C27.4293 14.232 27.3867 14.2027 27.36 14.176C27.3387 14.1493 27.328 14.1147 27.328 14.072C27.328 14.0187 27.3493 13.944 27.392 13.848C27.44 13.7467 27.52 13.5893 27.632 13.376C27.664 13.3067 27.7253 13.184 27.816 13.008C28.0453 12.5707 28.16 12.248 28.16 12.04C28.1547 12.0293 28.152 12.0133 28.152 11.992C28.152 11.9387 28.1947 11.8907 28.28 11.848C28.296 11.832 28.352 11.7867 28.448 11.712C28.5493 11.6373 28.6293 11.552 28.688 11.456C28.7573 11.296 28.8453 11.12 28.952 10.928C29.0587 10.7307 29.2427 10.4107 29.504 9.968C29.76 9.49867 30.032 9.07467 30.32 8.696C30.3733 8.62133 30.432 8.56267 30.496 8.52C30.5653 8.47733 30.624 8.456 30.672 8.456C30.8373 8.456 31.0053 8.52 31.176 8.648C31.352 8.776 31.4667 8.904 31.52 9.032C31.5413 9.06933 31.552 9.14933 31.552 9.272C31.552 9.43733 31.5333 9.71733 31.496 10.112C31.4853 10.1813 31.4747 10.2907 31.464 10.44C31.448 10.68 31.424 10.936 31.392 11.208C31.3333 11.8053 31.2907 12.272 31.264 12.608C31.2373 12.944 31.224 13.2587 31.224 13.552C31.224 13.7013 31.2267 13.8107 31.232 13.88V13.936L31.224 14.12C31.192 14.152 31.128 14.168 31.032 14.168C30.9253 14.168 30.8187 14.1493 30.712 14.112C30.6053 14.08 30.5467 14.04 30.536 13.992C30.5307 13.9867 30.5227 13.9813 30.512 13.976C30.5013 13.9707 30.496 13.9467 30.496 13.904L30.504 13.728L30.528 13.28L30.568 12.056L30.464 12.064C30.3573 12.064 30.1307 12.0853 29.784 12.128C29.4427 12.1707 29.2267 12.2053 29.136 12.232C29.088 12.232 29.0293 12.264 28.96 12.328C28.8907 12.392 28.8293 12.4747 28.776 12.576C28.76 12.6293 28.7227 12.7067 28.664 12.808C28.6053 12.904 28.576 12.96 28.576 12.976C28.544 12.9973 28.5147 13.0267 28.488 13.064C28.4667 13.096 28.4533 13.1173 28.448 13.128C28.448 13.1867 28.3947 13.3387 28.288 13.584C28.1867 13.824 28.0853 14.0213 27.984 14.176L27.768 14.48L27.488 14.264ZM29.4 11.512C29.4373 11.5067 29.512 11.496 29.624 11.48C29.736 11.4587 29.8347 11.4453 29.92 11.44C30.176 11.376 30.352 11.344 30.448 11.344C30.5013 11.344 30.5387 11.3493 30.56 11.36C30.576 11.3813 30.592 11.3973 30.608 11.408C30.6293 11.4133 30.6427 11.416 30.648 11.416C30.6587 11.3733 30.7013 11.0827 30.776 10.544C30.8507 10.0053 30.888 9.67467 30.888 9.552C30.888 9.46667 30.8853 9.39467 30.88 9.336C30.8747 9.272 30.8693 9.232 30.864 9.216C30.816 9.216 30.7067 9.344 30.536 9.6C30.3653 9.85067 30.2 10.136 30.04 10.456C29.9173 10.6747 29.832 10.784 29.784 10.784C29.7467 10.8213 29.6667 10.9467 29.544 11.16C29.4213 11.3733 29.3733 11.4907 29.4 11.512ZM31.5019 15.872C31.4486 15.872 31.4086 15.848 31.3819 15.8C31.3766 15.7947 31.3526 15.7627 31.3099 15.704C31.2673 15.6453 31.2459 15.56 31.2459 15.448C31.2459 15.4267 31.2513 15.384 31.2619 15.32C31.3206 15.096 31.3499 14.9413 31.3499 14.856C31.3499 14.8293 31.3553 14.7893 31.3659 14.736C31.3766 14.688 31.3846 14.6427 31.3899 14.6C31.4113 14.5627 31.4299 14.504 31.4459 14.424C31.4673 14.3493 31.4779 14.2827 31.4779 14.224C31.4779 14.1973 31.4859 14.1653 31.5019 14.128C31.5233 14.096 31.5473 14.0693 31.5739 14.048C31.5739 14.016 31.5819 13.968 31.5979 13.904C31.6139 13.8347 31.6246 13.7867 31.6299 13.76C31.6566 13.616 31.7606 13.2747 31.9419 12.736C32.1233 12.1973 32.2779 11.7627 32.4059 11.432C32.4699 11.2827 32.5233 11.144 32.5659 11.016C32.6086 10.888 32.6299 10.7973 32.6299 10.744C32.6299 10.7227 32.6353 10.704 32.6459 10.688C32.6619 10.6667 32.6859 10.64 32.7179 10.608C32.7606 10.5653 32.8166 10.544 32.8859 10.544C32.9766 10.544 33.0646 10.5733 33.1499 10.632C33.1873 10.6907 33.2139 10.7413 33.2299 10.784C33.2459 10.8267 33.2539 10.8747 33.2539 10.928C33.2539 10.944 33.2486 10.9947 33.2379 11.08C33.2379 11.192 33.2059 11.2933 33.1419 11.384C33.0779 11.4747 33.0486 11.5173 33.0539 11.512C33.3153 11.352 33.5579 11.272 33.7819 11.272C34.0219 11.272 34.2139 11.3573 34.3579 11.528C34.5019 11.6933 34.5739 11.8907 34.5739 12.12C34.5739 12.2107 34.5313 12.3467 34.4459 12.528C34.3606 12.704 34.2913 12.816 34.2379 12.864C34.2059 12.864 34.1633 12.92 34.1099 13.032C34.0459 13.1173 33.9233 13.208 33.7419 13.304C33.5659 13.3947 33.4459 13.4293 33.3819 13.408C33.3766 13.408 33.3686 13.416 33.3579 13.432C33.3473 13.4427 33.3419 13.4587 33.3419 13.48C33.3419 13.5013 33.2619 13.5387 33.1019 13.592C32.9419 13.6453 32.8033 13.672 32.6859 13.672C32.6219 13.672 32.5739 13.6693 32.5419 13.664C32.5099 13.6533 32.4779 13.6347 32.4459 13.608C32.4086 13.6453 32.3899 13.68 32.3899 13.712C32.3899 13.7653 32.3633 13.8507 32.3099 13.968C32.2566 14.08 32.2139 14.136 32.1819 14.136C32.1766 14.1413 32.1686 14.152 32.1579 14.168C32.1526 14.184 32.1606 14.2027 32.1819 14.224C32.1819 14.24 32.1793 14.2773 32.1739 14.336C32.1686 14.3947 32.1553 14.44 32.1339 14.472C32.1339 14.52 32.1259 14.584 32.1099 14.664C32.0939 14.7493 32.0753 14.8133 32.0539 14.856C32.0539 14.92 32.0433 14.9813 32.0219 15.04C32.0059 15.104 31.9873 15.136 31.9659 15.136C31.9339 15.1467 31.9179 15.224 31.9179 15.368C31.9126 15.496 31.8699 15.6107 31.7899 15.712C31.7153 15.8133 31.6433 15.864 31.5739 15.864L31.5019 15.872ZM32.5979 13.064C32.6726 13.064 32.8113 13.024 33.0139 12.944C33.2219 12.8587 33.3739 12.776 33.4699 12.696C33.5926 12.5947 33.6859 12.5013 33.7499 12.416C33.8139 12.3307 33.8459 12.2453 33.8459 12.16C33.8459 12.0853 33.8219 12.0133 33.7739 11.944C33.7366 11.8853 33.6806 11.856 33.6059 11.856C33.4299 11.856 33.2006 11.992 32.9179 12.264C32.8219 12.3653 32.7366 12.4933 32.6619 12.648C32.5873 12.7973 32.5499 12.912 32.5499 12.992C32.5499 13.04 32.5659 13.064 32.5979 13.064ZM34.7734 15.488C34.6827 15.488 34.5974 15.44 34.5174 15.344C34.4427 15.248 34.4054 15.1387 34.4054 15.016C34.4054 14.968 34.4134 14.92 34.4294 14.872C34.4347 14.8507 34.448 14.8 34.4694 14.72C34.496 14.6453 34.512 14.5813 34.5174 14.528C34.528 14.4693 34.56 14.3627 34.6134 14.208C34.6667 14.0533 34.7094 13.9493 34.7414 13.896C34.768 13.848 34.7894 13.792 34.8054 13.728C34.8214 13.6587 34.8294 13.6 34.8294 13.552C34.8667 13.4347 34.9014 13.3547 34.9334 13.312C34.9707 13.1947 35.0107 13.104 35.0534 13.04C35.0587 13.024 35.064 12.9867 35.0694 12.928C35.08 12.864 35.0987 12.8267 35.1254 12.816C35.1414 12.7413 35.1547 12.6907 35.1654 12.664C35.2027 12.4987 35.272 12.2907 35.3734 12.04C35.4534 11.8107 35.4934 11.656 35.4934 11.576C35.4934 11.4907 35.464 11.4373 35.4054 11.416C35.3467 11.3947 35.3174 11.32 35.3174 11.192C35.3174 11.1227 35.328 11.0587 35.3494 11C35.3707 10.9413 35.4 10.904 35.4374 10.888C35.5174 10.856 35.6214 10.84 35.7494 10.84C35.8347 10.84 35.8774 10.848 35.8774 10.864C35.8774 10.88 35.88 10.8933 35.8854 10.904C35.8907 10.9093 35.9014 10.912 35.9174 10.912C35.9334 10.8907 35.9734 10.9467 36.0374 11.08C36.1014 11.208 36.1334 11.2933 36.1334 11.336C36.1227 11.352 36.1174 11.3627 36.1174 11.368C36.1227 11.3733 36.1334 11.376 36.1494 11.376C36.1867 11.36 36.256 11.3253 36.3574 11.272C36.464 11.2133 36.5307 11.168 36.5574 11.136C36.568 11.1307 36.5867 11.1227 36.6134 11.112C36.64 11.096 36.6614 11.08 36.6774 11.064C36.736 11.0427 36.8027 11.032 36.8774 11.032C36.9627 11.032 37.0454 11.0453 37.1254 11.072C37.2054 11.0987 37.272 11.136 37.3254 11.184C37.4054 11.2853 37.472 11.4027 37.5254 11.536C37.5787 11.6693 37.6054 11.8 37.6054 11.928C37.6054 12.0347 37.584 12.144 37.5414 12.256C37.5307 12.288 37.496 12.352 37.4374 12.448C37.384 12.5387 37.3467 12.6 37.3254 12.632C37.112 12.9627 36.8187 13.2347 36.4454 13.448C36.376 13.496 36.2747 13.5413 36.1414 13.584C36.0134 13.6213 35.92 13.64 35.8614 13.64C35.8294 13.64 35.7947 13.6133 35.7574 13.56C35.7254 13.5013 35.696 13.4347 35.6694 13.36C35.6 13.5253 35.56 13.6373 35.5494 13.696C35.5494 13.712 35.544 13.7387 35.5334 13.776C35.528 13.808 35.5147 13.832 35.4934 13.848C35.4934 13.8533 35.488 13.8667 35.4774 13.888C35.472 13.9093 35.456 13.9387 35.4294 13.976L35.2934 14.368C35.2294 14.5227 35.1894 14.6453 35.1734 14.736C35.1574 14.9227 35.1147 15.0933 35.0454 15.248C34.976 15.408 34.8854 15.488 34.7734 15.488ZM36.0294 12.88C36.1094 12.8427 36.2214 12.784 36.3654 12.704C36.5147 12.624 36.6134 12.5547 36.6614 12.496C36.6987 12.4533 36.7227 12.408 36.7334 12.36C36.7494 12.312 36.7627 12.2693 36.7734 12.232C36.8267 12.0987 36.864 12 36.8854 11.936C36.9014 11.904 36.9094 11.8667 36.9094 11.824C36.9094 11.7653 36.8934 11.72 36.8614 11.688C36.7974 11.6827 36.6934 11.7147 36.5494 11.784C36.4107 11.848 36.28 11.96 36.1574 12.12C35.9814 12.3493 35.8934 12.544 35.8934 12.704C35.8934 12.7573 35.904 12.8 35.9254 12.832C35.952 12.864 35.9867 12.88 36.0294 12.88ZM38.1728 13.88C38.1355 13.88 38.0848 13.8533 38.0208 13.8C37.9621 13.7467 37.9275 13.6987 37.9168 13.656C37.9115 13.6453 37.9088 13.6213 37.9088 13.584C37.9088 13.5147 37.9408 13.3787 38.0048 13.176L38.0608 12.92C38.1141 12.6853 38.1621 12.488 38.2048 12.328C38.2208 12.296 38.2528 12.2053 38.3008 12.056C38.3328 11.9387 38.3755 11.824 38.4288 11.712C38.4928 11.472 38.5941 11.2347 38.7328 11C38.7488 10.9733 38.7755 10.9413 38.8128 10.904C38.8501 10.8667 38.8768 10.848 38.8928 10.848C38.9248 10.816 38.9701 10.8 39.0288 10.8C39.1141 10.8 39.1915 10.8293 39.2608 10.888C39.3301 10.968 39.3648 11.0533 39.3648 11.144C39.3648 11.2453 39.3275 11.3707 39.2528 11.52C39.2101 11.6373 39.1408 11.7867 39.0448 11.968C38.9701 12.1013 38.9248 12.1893 38.9088 12.232C38.9728 12.1467 39.1115 11.9867 39.3248 11.752C39.3888 11.6827 39.4501 11.6267 39.5088 11.584C39.5675 11.536 39.6555 11.4747 39.7728 11.4C39.8901 11.3147 39.9835 11.256 40.0528 11.224C40.1221 11.1867 40.2021 11.168 40.2928 11.168C40.3355 11.168 40.3675 11.1707 40.3888 11.176C40.4581 11.1707 40.5301 11.216 40.6048 11.312C40.6848 11.408 40.7248 11.5173 40.7248 11.64C40.7248 11.688 40.7168 11.736 40.7008 11.784C40.6368 11.7733 40.5915 11.768 40.5648 11.768C40.4581 11.768 40.3621 11.7893 40.2768 11.832C40.1968 11.8747 40.1301 11.9173 40.0768 11.96C40.0235 11.9973 39.9888 12.0213 39.9728 12.032C39.7861 12.1547 39.5648 12.32 39.3088 12.528C39.1808 12.6347 39.0848 12.728 39.0208 12.808C38.9568 12.888 38.9061 12.9733 38.8688 13.064C38.8581 13.096 38.8075 13.2213 38.7168 13.44C38.6261 13.6533 38.5568 13.7787 38.5088 13.816C38.4821 13.8747 38.4128 13.904 38.3008 13.904C38.2421 13.904 38.1995 13.896 38.1728 13.88ZM41.7996 14C41.4956 14 41.2503 13.9147 41.0636 13.744C40.877 13.5733 40.7836 13.3307 40.7836 13.016C40.7836 12.8933 40.7916 12.7573 40.8076 12.608C40.8183 12.48 40.869 12.304 40.9596 12.08C41.0556 11.856 41.1836 11.6373 41.3436 11.424C41.509 11.2107 41.701 11.0533 41.9196 10.952C42.021 10.904 42.1063 10.872 42.1756 10.856C42.245 10.8347 42.325 10.824 42.4156 10.824C42.6343 10.824 42.8103 10.864 42.9436 10.944C43.0823 11.024 43.1783 11.1147 43.2316 11.216C43.2903 11.3173 43.3196 11.4053 43.3196 11.48V11.52V11.544C43.3196 11.608 43.2823 11.7253 43.2076 11.896C43.133 12.0667 43.013 12.2267 42.8476 12.376C42.6876 12.5253 42.4796 12.608 42.2236 12.624C42.0956 12.624 41.9703 12.6133 41.8476 12.592C41.7303 12.5653 41.6556 12.552 41.6236 12.552C41.5436 12.552 41.493 12.5813 41.4716 12.64C41.4503 12.6987 41.4396 12.7973 41.4396 12.936C41.4556 13.0853 41.4956 13.1893 41.5596 13.248C41.629 13.3067 41.7276 13.336 41.8556 13.336C41.9196 13.336 41.9943 13.3173 42.0796 13.28C42.165 13.2373 42.2663 13.1707 42.3836 13.08C42.4476 13.0267 42.4983 12.9893 42.5356 12.968C42.573 12.9467 42.6183 12.936 42.6716 12.936C42.7196 12.936 42.7756 12.968 42.8396 13.032C42.9036 13.096 42.9383 13.1573 42.9436 13.216C42.933 13.28 42.8743 13.376 42.7676 13.504C42.661 13.632 42.5223 13.7467 42.3516 13.848C42.181 13.9493 41.997 14 41.7996 14ZM42.0796 12.072C42.181 12.072 42.2503 12.0613 42.2876 12.04C42.341 12.0133 42.421 11.9467 42.5276 11.84C42.6396 11.728 42.6983 11.6507 42.7036 11.608C42.7036 11.5547 42.6796 11.512 42.6316 11.48C42.589 11.4427 42.5276 11.4187 42.4476 11.408H42.3596C42.2903 11.408 42.189 11.4667 42.0556 11.584C41.9276 11.696 41.8156 11.8267 41.7196 11.976C41.725 12.0027 41.765 12.0267 41.8396 12.048C41.9143 12.064 41.9943 12.072 42.0796 12.072ZM44.4555 14.032C44.3915 14.0427 44.3408 14.048 44.3035 14.048C44.0848 14.048 43.8902 13.9787 43.7195 13.84C43.5542 13.696 43.4715 13.5147 43.4715 13.296L43.4635 13.168C43.4635 12.9173 43.5195 12.6267 43.6315 12.296C43.7435 11.9653 43.8822 11.696 44.0475 11.488C44.1808 11.3333 44.2955 11.208 44.3915 11.112C44.4875 11.016 44.5755 10.952 44.6555 10.92C44.7248 10.8933 44.8128 10.8693 44.9195 10.848C45.0262 10.8267 45.1062 10.816 45.1595 10.816C45.2662 10.8427 45.3648 10.88 45.4555 10.928C45.5515 10.976 45.5995 11.0293 45.5995 11.088L45.6395 11.128C45.6768 11.128 45.7195 11.1867 45.7675 11.304C45.8208 11.4213 45.8475 11.528 45.8475 11.624C45.8475 11.672 45.8395 11.712 45.8235 11.744C45.8022 11.8453 45.7595 11.944 45.6955 12.04C45.6368 12.136 45.5862 12.184 45.5435 12.184C45.4848 12.184 45.4555 12.2 45.4555 12.232C45.4555 12.2587 45.4235 12.272 45.3595 12.272C45.3062 12.272 45.2502 12.2613 45.1915 12.24C45.1328 12.2133 45.0982 12.1813 45.0875 12.144C45.0875 12.1173 45.1088 12.0107 45.1515 11.824C45.1675 11.744 45.1755 11.6773 45.1755 11.624C45.1755 11.528 45.1435 11.48 45.0795 11.48C45.0635 11.48 45.0235 11.4907 44.9595 11.512C44.8208 11.5867 44.7088 11.6747 44.6235 11.776C44.5435 11.872 44.4715 12.0053 44.4075 12.176C44.3435 12.3467 44.2688 12.5947 44.1835 12.92C44.1675 12.984 44.1595 13.0427 44.1595 13.096C44.1595 13.16 44.1675 13.2133 44.1835 13.256C44.1995 13.2933 44.2155 13.3147 44.2315 13.32C44.2582 13.3307 44.3062 13.336 44.3755 13.336C44.5088 13.336 44.6155 13.312 44.6955 13.264C44.7915 13.2107 44.8848 13.152 44.9755 13.088C45.0662 13.0187 45.1222 12.976 45.1435 12.96C45.1542 12.9493 45.1755 12.92 45.2075 12.872C45.2395 12.8187 45.2742 12.784 45.3115 12.768C45.3435 12.72 45.3835 12.6907 45.4315 12.68C45.4795 12.6693 45.5275 12.664 45.5755 12.664C45.6235 12.664 45.6555 12.664 45.6715 12.664C45.7408 12.6853 45.8075 12.7333 45.8715 12.808C45.9355 12.8827 45.9462 12.9307 45.9035 12.952C45.8875 12.952 45.8768 12.9573 45.8715 12.968C45.8662 12.9787 45.8635 12.9867 45.8635 12.992C45.8742 13.0187 45.8315 13.0907 45.7355 13.208C45.6395 13.32 45.5328 13.4293 45.4155 13.536C45.2982 13.6373 45.2182 13.688 45.1755 13.688C45.1542 13.688 45.1355 13.6907 45.1195 13.696C45.1035 13.7013 45.0955 13.7147 45.0955 13.736C45.0955 13.7573 45.0128 13.808 44.8475 13.888C44.6875 13.9627 44.5568 14.0107 44.4555 14.032ZM47.7056 10.672C47.6896 10.688 47.6736 10.696 47.6576 10.696C47.6362 10.696 47.6016 10.68 47.5536 10.648C47.5002 10.6427 47.4282 10.5973 47.3376 10.512C47.2522 10.4267 47.2096 10.3707 47.2096 10.344C47.2042 10.28 47.2096 10.1893 47.2256 10.072C47.2416 9.94933 47.2709 9.84 47.3136 9.744C47.3616 9.648 47.4229 9.59733 47.4976 9.592C47.5349 9.59733 47.5856 9.61067 47.6496 9.632C47.7136 9.648 47.7856 9.672 47.8656 9.704C47.9669 9.90667 48.0176 10.08 48.0176 10.224C48.0176 10.4373 47.9136 10.5867 47.7056 10.672ZM46.9696 13.992C46.8416 13.992 46.7296 13.9253 46.6336 13.792C46.5429 13.6587 46.4869 13.4933 46.4656 13.296C46.4869 13.0987 46.5029 12.9547 46.5136 12.864C46.5722 12.6027 46.6442 12.296 46.7296 11.944C46.8202 11.5867 46.8736 11.3893 46.8896 11.352C46.9162 11.304 46.9589 11.28 47.0176 11.28C47.0762 11.28 47.1402 11.304 47.2096 11.352C47.2842 11.3947 47.3456 11.456 47.3936 11.536C47.4362 11.5947 47.4576 11.6613 47.4576 11.736C47.4576 11.848 47.4042 12.0827 47.2976 12.44C47.2229 12.7067 47.1749 12.896 47.1536 13.008C47.1322 13.12 47.1242 13.24 47.1296 13.368C47.1082 13.608 47.0869 13.7733 47.0656 13.864C47.0442 13.9547 47.0122 13.9973 46.9696 13.992ZM48.4439 13.856C48.3532 13.8773 48.2439 13.8293 48.1159 13.712C47.9879 13.5947 47.9132 13.4853 47.8919 13.384C47.8812 13.3307 47.8759 13.2853 47.8759 13.248C47.8759 13.04 47.9425 12.7893 48.0759 12.496C48.2092 12.1973 48.3879 11.9173 48.6119 11.656C48.8412 11.3947 49.0919 11.2053 49.3639 11.088C49.4759 11.0293 49.5479 11 49.5799 11C49.6119 11 49.6839 11.0293 49.7959 11.088C49.9025 11.1147 49.9879 11.144 50.0519 11.176C50.1159 11.208 50.1745 11.2587 50.2279 11.328C50.2972 11.4667 50.3479 11.6373 50.3799 11.84C50.4119 11.952 50.4279 12.032 50.4279 12.08C50.4279 12.1227 50.4119 12.16 50.3799 12.192C50.3745 12.1973 50.3639 12.208 50.3479 12.224C50.3372 12.24 50.3319 12.2533 50.3319 12.264C50.3319 12.2693 50.3372 12.272 50.3479 12.272C50.3479 12.2773 50.3452 12.2907 50.3399 12.312C50.3345 12.328 50.3239 12.352 50.3079 12.384C50.2439 12.5867 50.2119 12.744 50.2119 12.856C50.2119 12.8933 50.2172 12.9387 50.2279 12.992C50.2812 13.1307 50.3479 13.2 50.4279 13.2C50.5025 13.2 50.5879 13.152 50.6839 13.056C50.7639 13.0027 50.8439 12.976 50.9239 12.976C50.9719 12.976 50.9959 12.9893 50.9959 13.016C51.0012 13.0213 51.0119 13.0293 51.0279 13.04C51.0439 13.0507 51.0599 13.056 51.0759 13.056C51.0972 13.056 51.1079 13.08 51.1079 13.128C51.1079 13.1707 51.0972 13.2267 51.0759 13.296C51.0599 13.3653 51.0385 13.4213 51.0119 13.464C50.9745 13.5013 50.9452 13.5333 50.9239 13.56C50.9025 13.5867 50.8919 13.608 50.8919 13.624L50.7719 13.736C50.6705 13.7947 50.5505 13.824 50.4119 13.824C50.2679 13.824 50.1532 13.7947 50.0679 13.736C49.9825 13.6773 49.9025 13.6053 49.8279 13.52C49.7532 13.4293 49.7052 13.3493 49.6839 13.28L49.6439 13.2L49.4119 13.352L49.2119 13.56C49.1692 13.6133 49.1319 13.64 49.0999 13.64H49.0199C49.0199 13.6773 48.9452 13.7227 48.7959 13.776C48.6465 13.8293 48.5292 13.856 48.4439 13.856ZM48.6119 13.184C48.6705 13.184 48.7905 13.1173 48.9719 12.984C49.1585 12.8453 49.2839 12.736 49.3479 12.656C49.3692 12.6293 49.3959 12.592 49.4279 12.544C49.4652 12.4907 49.4972 12.4507 49.5239 12.424C49.6092 12.3227 49.6705 12.2427 49.7079 12.184C49.7505 12.12 49.7719 12.0587 49.7719 12C49.7719 11.9573 49.7532 11.8987 49.7159 11.824C49.6945 11.76 49.6625 11.728 49.6199 11.728C49.5985 11.728 49.5372 11.7467 49.4359 11.784C49.3345 11.8427 49.2145 11.9627 49.0759 12.144C48.9425 12.3253 48.8252 12.5093 48.7239 12.696C48.6225 12.8827 48.5719 13.0187 48.5719 13.104C48.5719 13.12 48.5772 13.136 48.5879 13.152C48.5985 13.168 48.6065 13.1787 48.6119 13.184ZM52.3634 14.048C52.2461 14.016 52.0941 13.9173 51.9074 13.752C51.8168 13.6347 51.7634 13.5307 51.7474 13.44C51.7314 13.344 51.7234 13.1573 51.7234 12.88C51.7234 12.752 51.7874 12.432 51.9154 11.92C51.9208 11.8987 51.9394 11.8267 51.9714 11.704C51.9874 11.6453 51.9661 11.608 51.9074 11.592C51.8488 11.576 51.7661 11.568 51.6594 11.568C51.5688 11.568 51.5154 11.5627 51.4994 11.552C51.4834 11.5467 51.4728 11.5227 51.4674 11.48C51.4674 11.4373 51.4674 11.408 51.4674 11.392C51.4674 11.376 51.4541 11.36 51.4274 11.344C51.4061 11.328 51.3901 11.312 51.3794 11.296C51.3634 11.2747 51.3768 11.2347 51.4194 11.176C51.4621 11.1173 51.5101 11.0827 51.5634 11.072C51.5954 11.0667 51.6648 11.0587 51.7714 11.048C51.8781 11.0373 51.9794 11.016 52.0754 10.984C52.1768 10.952 52.2514 10.9067 52.2994 10.848C52.3688 10.6667 52.4488 10.4747 52.5394 10.272C52.6354 10.0693 52.7021 9.94933 52.7394 9.912C52.8248 9.86933 52.9021 9.848 52.9714 9.848C53.0888 9.848 53.1794 9.896 53.2434 9.992C53.2594 10.0133 53.2781 10.0347 53.2994 10.056C53.3208 10.0773 53.3314 10.1013 53.3314 10.128C53.3314 10.1653 53.3128 10.224 53.2754 10.304C53.2434 10.384 53.1768 10.5147 53.0754 10.696L52.9714 10.896C52.9874 10.9013 53.0248 10.904 53.0834 10.904C53.1421 10.904 53.1901 10.9013 53.2274 10.896C53.3448 10.8747 53.4354 10.864 53.4994 10.864C53.5474 10.864 53.5821 10.8667 53.6034 10.872C53.8274 10.872 53.9501 10.9947 53.9714 11.24C53.9821 11.304 53.9581 11.3573 53.8994 11.4C53.8461 11.4373 53.7501 11.456 53.6114 11.456C53.0621 11.4773 52.7848 11.5013 52.7794 11.528C52.7528 11.544 52.7101 11.6267 52.6514 11.776C52.5928 11.9253 52.5448 12.0667 52.5074 12.2C52.4434 12.4773 52.4114 12.7387 52.4114 12.984C52.4114 13.2187 52.4461 13.3707 52.5154 13.44C52.5368 13.4613 52.5661 13.472 52.6034 13.472C52.6994 13.472 52.8354 13.4 53.0114 13.256C53.0701 13.2027 53.1341 13.176 53.2034 13.176C53.2621 13.176 53.3074 13.1973 53.3394 13.24C53.3768 13.2827 53.3954 13.3387 53.3954 13.408C53.3954 13.488 53.3688 13.5653 53.3154 13.64C53.2354 13.7627 53.1154 13.864 52.9554 13.944C52.7954 14.024 52.6434 14.064 52.4994 14.064C52.4354 14.064 52.3901 14.0587 52.3634 14.048ZM54.9559 14C54.6519 14 54.4065 13.9147 54.2199 13.744C54.0332 13.5733 53.9399 13.3307 53.9399 13.016C53.9399 12.8933 53.9479 12.7573 53.9639 12.608C53.9745 12.48 54.0252 12.304 54.1159 12.08C54.2119 11.856 54.3399 11.6373 54.4999 11.424C54.6652 11.2107 54.8572 11.0533 55.0759 10.952C55.1772 10.904 55.2625 10.872 55.3319 10.856C55.4012 10.8347 55.4812 10.824 55.5719 10.824C55.7905 10.824 55.9665 10.864 56.0999 10.944C56.2385 11.024 56.3345 11.1147 56.3879 11.216C56.4465 11.3173 56.4759 11.4053 56.4759 11.48V11.52V11.544C56.4759 11.608 56.4385 11.7253 56.3639 11.896C56.2892 12.0667 56.1692 12.2267 56.0039 12.376C55.8439 12.5253 55.6359 12.608 55.3799 12.624C55.2519 12.624 55.1265 12.6133 55.0039 12.592C54.8865 12.5653 54.8119 12.552 54.7799 12.552C54.6999 12.552 54.6492 12.5813 54.6279 12.64C54.6065 12.6987 54.5959 12.7973 54.5959 12.936C54.6119 13.0853 54.6519 13.1893 54.7159 13.248C54.7852 13.3067 54.8839 13.336 55.0119 13.336C55.0759 13.336 55.1505 13.3173 55.2359 13.28C55.3212 13.2373 55.4225 13.1707 55.5399 13.08C55.6039 13.0267 55.6545 12.9893 55.6919 12.968C55.7292 12.9467 55.7745 12.936 55.8279 12.936C55.8759 12.936 55.9319 12.968 55.9959 13.032C56.0599 13.096 56.0945 13.1573 56.0999 13.216C56.0892 13.28 56.0305 13.376 55.9239 13.504C55.8172 13.632 55.6785 13.7467 55.5079 13.848C55.3372 13.9493 55.1532 14 54.9559 14ZM55.2359 12.072C55.3372 12.072 55.4065 12.0613 55.4439 12.04C55.4972 12.0133 55.5772 11.9467 55.6839 11.84C55.7959 11.728 55.8545 11.6507 55.8599 11.608C55.8599 11.5547 55.8359 11.512 55.7879 11.48C55.7452 11.4427 55.6839 11.4187 55.6039 11.408H55.5159C55.4465 11.408 55.3452 11.4667 55.2119 11.584C55.0839 11.696 54.9719 11.8267 54.8759 11.976C54.8812 12.0027 54.9212 12.0267 54.9959 12.048C55.0705 12.064 55.1505 12.072 55.2359 12.072ZM58.4533 14.464C58.3733 14.464 58.2906 14.4107 58.2053 14.304C58.1199 14.2027 58.0773 14.0747 58.0773 13.92C58.0773 13.7973 58.1066 13.6773 58.1653 13.56C58.2719 13.336 58.3786 13.1547 58.4853 13.016C58.5226 12.9627 58.5493 12.9173 58.5653 12.88C58.5866 12.8427 58.5999 12.792 58.6053 12.728C58.6799 12.632 58.7786 12.4587 58.9013 12.208C59.1093 11.872 59.4053 11.3547 59.7893 10.656C59.8426 10.56 59.9466 10.3707 60.1013 10.088C60.2613 9.80533 60.3679 9.63733 60.4213 9.584L60.4613 9.528C60.4453 9.55467 60.4719 9.49333 60.5413 9.344C60.6159 9.19467 60.6933 9.06133 60.7733 8.944C60.8586 8.82133 60.9333 8.76 60.9973 8.76C61.0666 8.76 61.1466 8.78933 61.2373 8.848C61.3279 8.90133 61.4053 8.984 61.4693 9.096C61.5386 9.20267 61.5733 9.33067 61.5733 9.48C61.5733 9.544 61.5706 9.59467 61.5653 9.632L61.4853 10.176L61.4453 10.352C61.3759 10.704 61.2719 11.1867 61.1333 11.8C61.0106 12.344 60.9493 12.672 60.9493 12.784C60.9493 12.816 60.9546 12.8427 60.9653 12.864C60.9759 12.88 60.9893 12.888 61.0053 12.888C61.0159 12.888 61.0426 12.872 61.0853 12.84C61.1279 12.8027 61.1653 12.7493 61.1973 12.68L61.3013 12.52L61.4373 12.32C61.5866 12.112 61.7706 11.832 61.9893 11.48C62.2079 11.1227 62.5626 10.512 63.0533 9.648C63.1546 9.49867 63.2373 9.368 63.3013 9.256C63.3866 9.11733 63.4693 8.98667 63.5493 8.864C63.6293 8.74133 63.6906 8.664 63.7333 8.632C63.7866 8.58933 63.8533 8.568 63.9333 8.568C64.0133 8.57333 64.0959 8.60267 64.1813 8.656C64.2719 8.70933 64.3466 8.784 64.4053 8.88C64.4693 8.976 64.5013 9.08 64.5013 9.192C64.5013 9.32 64.4613 9.55467 64.3813 9.896C64.3066 10.2373 64.2186 10.568 64.1173 10.888C64.0959 11 64.0293 11.264 63.9173 11.68C63.8319 11.9893 63.7679 12.2347 63.7253 12.416C63.6879 12.5973 63.6693 12.744 63.6693 12.856V12.92C63.5893 13.064 63.5493 13.352 63.5493 13.784C63.5279 13.96 63.4879 14.096 63.4293 14.192C63.3706 14.2933 63.3226 14.344 63.2853 14.344L63.2613 14.336C63.2346 14.336 63.2079 14.3467 63.1813 14.368C63.1599 14.3947 63.1279 14.408 63.0853 14.408C62.9519 14.408 62.8639 14.36 62.8213 14.264C62.7839 14.168 62.7653 14.0373 62.7653 13.872C62.7653 13.776 62.7679 13.696 62.7733 13.632C62.7893 13.4933 62.9599 12.7707 63.2853 11.464C63.5413 10.44 63.6693 9.904 63.6693 9.856L63.5573 10.048C63.4506 10.2507 63.3173 10.488 63.1573 10.76L62.5973 11.808C62.5279 11.904 62.4693 11.9973 62.4213 12.088C62.3786 12.1787 62.3546 12.232 62.3493 12.248C62.2853 12.376 62.1573 12.56 61.9653 12.8C61.9013 12.88 61.8639 12.9307 61.8533 12.952C61.8266 13.0107 61.7413 13.1147 61.5973 13.264C61.4533 13.408 61.3013 13.5413 61.1413 13.664C60.9813 13.7813 60.8479 13.84 60.7413 13.84C60.5973 13.84 60.4666 13.7707 60.3493 13.632C60.2373 13.4933 60.1813 13.3253 60.1813 13.128C60.1813 12.984 60.2079 12.744 60.2613 12.408C60.3466 12.04 60.4373 11.6667 60.5333 11.288C60.6293 10.9093 60.6959 10.6613 60.7333 10.544C60.7493 10.496 60.7573 10.4427 60.7573 10.384C60.7573 10.3467 60.7519 10.3227 60.7413 10.312C60.7359 10.312 60.7279 10.3173 60.7173 10.328C60.7119 10.3387 60.7039 10.352 60.6933 10.368C60.6133 10.496 60.4879 10.72 60.3173 11.04C60.1466 11.36 59.9626 11.736 59.7653 12.168C59.0026 13.5707 58.5653 14.336 58.4533 14.464ZM64.8574 15.904C64.82 15.9147 64.772 15.8933 64.7134 15.84C64.66 15.792 64.6334 15.7227 64.6334 15.632L64.6414 15.56C64.6307 15.5173 64.6254 15.48 64.6254 15.448C64.6254 15.32 64.7 15.104 64.8494 14.8C64.8867 14.7413 64.94 14.6293 65.0094 14.464C65.0574 14.3413 65.1054 14.2347 65.1534 14.144C65.1694 14.1173 65.2414 13.992 65.3694 13.768C65.5027 13.5387 65.628 13.272 65.7454 12.968C65.7027 13.0107 65.5934 13.136 65.4174 13.344C65.284 13.504 65.18 13.616 65.1054 13.68C65.036 13.744 64.9614 13.7733 64.8814 13.768C64.8067 13.752 64.7214 13.7067 64.6254 13.632C64.5347 13.552 64.476 13.4693 64.4494 13.384C64.4334 13.2933 64.4254 13.1947 64.4254 13.088C64.4254 12.848 64.46 12.5227 64.5294 12.112C64.572 11.9147 64.5934 11.776 64.5934 11.696C64.5934 11.6053 64.58 11.536 64.5534 11.488C64.5267 11.4347 64.4894 11.3867 64.4414 11.344C64.404 11.312 64.3854 11.2773 64.3854 11.24C64.3854 11.192 64.4094 11.144 64.4574 11.096C64.5054 11.0427 64.5614 11 64.6254 10.968C64.7214 10.9467 64.7854 10.936 64.8174 10.936C64.908 10.936 65.0014 10.9867 65.0974 11.088C65.108 11.1093 65.132 11.152 65.1694 11.216C65.2067 11.2747 65.236 11.3413 65.2574 11.416C65.2787 11.4853 65.2894 11.5653 65.2894 11.656C65.2894 11.6827 65.276 11.8747 65.2494 12.232L65.1614 12.552C65.1294 12.664 65.1027 12.76 65.0814 12.84C65.0654 12.92 65.0654 12.96 65.0814 12.96C65.236 12.832 65.3667 12.7067 65.4734 12.584C65.5854 12.4613 65.7427 12.2613 65.9454 11.984C65.9667 11.9467 66.0067 11.8747 66.0654 11.768C66.1294 11.656 66.1774 11.552 66.2094 11.456C66.2467 11.3813 66.2894 11.3067 66.3374 11.232C66.3907 11.1573 66.428 11.1173 66.4494 11.112C66.4814 11.1013 66.54 11.112 66.6254 11.144C66.716 11.176 66.764 11.2 66.7694 11.216C66.7694 11.2213 66.8174 11.2293 66.9134 11.24C67.0147 11.2453 67.0654 11.256 67.0654 11.272C67.0654 11.2827 67.0254 11.3787 66.9454 11.56C66.8334 11.8213 66.78 11.9573 66.7854 11.968C66.8014 11.9893 66.772 12.08 66.6974 12.24C66.628 12.4 66.588 12.4933 66.5774 12.52C66.444 12.9467 66.3 13.2933 66.1454 13.56C66.092 13.656 65.964 13.936 65.7614 14.4L65.6974 14.552C65.644 14.6693 65.5854 14.8027 65.5214 14.952C65.4574 15.1067 65.4014 15.2427 65.3534 15.36C65.3214 15.424 65.2974 15.4747 65.2814 15.512C65.2707 15.5547 65.26 15.5867 65.2494 15.608C65.2387 15.7093 65.2147 15.784 65.1774 15.832C65.1507 15.8587 65.1134 15.8773 65.0654 15.888C65.0174 15.8987 64.972 15.904 64.9294 15.904C64.892 15.904 64.868 15.904 64.8574 15.904ZM71.8014 14.608C71.6628 14.608 71.5374 14.5413 71.4254 14.408C71.3188 14.2747 71.2654 14.1173 71.2654 13.936C71.2654 13.888 71.2761 13.7947 71.2974 13.656C71.3188 13.512 71.3348 13.416 71.3454 13.368C71.2174 13.6453 71.0894 13.8667 70.9614 14.032C70.8601 14.1387 70.7588 14.2213 70.6574 14.28C70.5614 14.344 70.4948 14.3893 70.4574 14.416C70.4414 14.4267 70.4014 14.448 70.3374 14.48C70.2734 14.5173 70.2254 14.536 70.1934 14.536C70.1668 14.536 70.1241 14.512 70.0654 14.464C69.9694 14.4373 69.8681 14.3813 69.7614 14.296C69.6601 14.216 69.5988 14.136 69.5774 14.056C69.5401 13.96 69.5108 13.8293 69.4894 13.664C69.4681 13.4987 69.4574 13.32 69.4574 13.128C69.4574 12.8133 69.4814 12.5573 69.5294 12.36C69.5508 12.2853 69.5668 12.1973 69.5774 12.096C69.5828 12.016 69.5961 11.9413 69.6174 11.872C69.6068 11.7867 69.6814 11.5093 69.8414 11.04C70.0068 10.5707 70.1881 10.1093 70.3854 9.656C70.5828 9.20267 70.7321 8.93333 70.8334 8.848C70.9188 8.74667 71.0228 8.696 71.1454 8.696C71.1988 8.696 71.2441 8.70933 71.2814 8.736C71.3241 8.75733 71.3454 8.78133 71.3454 8.808C71.3614 8.84 71.3748 8.872 71.3854 8.904C71.3961 8.936 71.4094 8.96267 71.4254 8.984C71.4361 9.02667 71.4414 9.06133 71.4414 9.088C71.4414 9.14667 71.4228 9.22133 71.3854 9.312C71.3534 9.40267 71.2841 9.568 71.1774 9.808C70.8841 10.3307 70.6468 10.952 70.4654 11.672C70.2841 12.3867 70.2068 12.9893 70.2334 13.48C70.2334 13.64 70.2574 13.72 70.3054 13.72C70.3588 13.72 70.4414 13.6533 70.5534 13.52C70.6068 13.4507 70.6681 13.3573 70.7374 13.24C70.8068 13.1173 70.8521 13.0347 70.8734 12.992C70.8841 12.976 70.9054 12.936 70.9374 12.872C70.9694 12.808 71.0068 12.7253 71.0494 12.624C71.1561 12.4693 71.3134 12.1493 71.5214 11.664C71.7348 11.1787 71.8601 10.8427 71.8974 10.656C71.9454 10.48 72.0041 10.392 72.0734 10.392C72.1268 10.36 72.1828 10.344 72.2414 10.344C72.3481 10.344 72.4308 10.4133 72.4894 10.552L72.7054 10.768L72.5294 11.248C72.2681 12 72.0974 12.7253 72.0174 13.424C72.0068 13.44 71.9908 13.472 71.9694 13.52C71.9481 13.5627 71.9374 13.6053 71.9374 13.648C71.9374 13.712 71.9748 13.7413 72.0494 13.736C72.1241 13.688 72.1881 13.632 72.2414 13.568C72.3001 13.4987 72.3774 13.392 72.4734 13.248C72.6494 13.0027 72.7774 12.8267 72.8574 12.72C72.9161 12.6507 72.9721 12.5787 73.0254 12.504C73.0788 12.424 73.1134 12.3733 73.1294 12.352L73.2494 12.088C73.2921 12.0133 73.3294 11.9547 73.3614 11.912C73.3934 11.8693 73.4148 11.8427 73.4254 11.832C73.4894 11.7787 73.5854 11.608 73.7134 11.32C73.8468 11.0267 73.9694 10.72 74.0814 10.4C74.1988 10.08 74.2628 9.85867 74.2734 9.736C74.3001 9.416 74.3348 9.19467 74.3774 9.072C74.4254 8.944 74.4841 8.87467 74.5534 8.864C74.7401 8.86933 74.8574 8.93867 74.9054 9.072C74.9588 9.2 74.9854 9.37333 74.9854 9.592C74.9854 9.74667 74.9668 9.92 74.9294 10.112C74.8974 10.2987 74.8574 10.4453 74.8094 10.552C74.7934 10.5947 74.7721 10.648 74.7454 10.712C74.7188 10.7707 74.6894 10.84 74.6574 10.92C74.6201 10.92 74.5828 10.96 74.5454 11.04C74.5134 11.12 74.4921 11.168 74.4814 11.184C74.4814 11.2213 74.4628 11.2987 74.4254 11.416C74.3881 11.528 74.3481 11.6213 74.3054 11.696L73.5934 12.888C73.4814 13.0213 73.4094 13.1307 73.3774 13.216C73.2601 13.408 73.0654 13.6347 72.7934 13.896C72.5214 14.1573 72.3081 14.3387 72.1534 14.44C72.0948 14.488 72.0281 14.528 71.9534 14.56C71.8788 14.592 71.8281 14.608 71.8014 14.608ZM75.5913 13.936C75.5646 13.9413 75.5299 13.944 75.4873 13.944C75.4179 13.944 75.3619 13.9333 75.3193 13.912C75.2766 13.8853 75.2259 13.8427 75.1673 13.784C75.0446 13.7253 74.9379 13.6267 74.8473 13.488C74.7566 13.3493 74.7166 13.24 74.7273 13.16C74.7539 12.904 74.8259 12.6267 74.9433 12.328C75.0606 12.024 75.2126 11.752 75.3993 11.512C75.5913 11.2667 75.7939 11.096 76.0073 11C76.1033 10.9627 76.1913 10.944 76.2713 10.944C76.4366 10.944 76.5459 10.9973 76.5993 11.104C76.6366 11.1787 76.6553 11.2347 76.6553 11.272C76.6553 11.336 76.6179 11.3787 76.5433 11.4C76.5273 11.4 76.5086 11.408 76.4873 11.424C76.4659 11.44 76.4553 11.456 76.4553 11.472C76.4606 11.4773 76.4846 11.48 76.5273 11.48C76.6179 11.48 76.7299 11.4667 76.8633 11.44C76.9966 11.4133 77.0819 11.384 77.1193 11.352C77.1513 11.336 77.1779 11.328 77.1993 11.328L77.3113 11.344C77.4019 11.3707 77.4473 11.4027 77.4473 11.44C77.4473 11.4667 77.4553 11.5013 77.4713 11.544C77.4926 11.5867 77.5113 11.608 77.5273 11.608C77.5539 11.608 77.5673 11.6267 77.5673 11.664C77.5673 11.696 77.5486 11.7387 77.5113 11.792C77.4793 11.84 77.4313 11.888 77.3673 11.936C77.3406 11.952 77.3006 11.976 77.2473 12.008C77.1993 12.04 77.1699 12.0667 77.1593 12.088C77.1539 12.1093 77.1566 12.1387 77.1673 12.176C77.1886 12.2187 77.1993 12.272 77.1993 12.336C77.1993 12.5173 77.1113 12.7307 76.9353 12.976C76.7593 13.216 76.5433 13.4293 76.2873 13.616C76.0366 13.8027 75.8046 13.9093 75.5913 13.936ZM75.6153 13.264C75.6473 13.264 75.7273 13.232 75.8553 13.168C75.9246 13.0987 75.9806 13.056 76.0233 13.04C76.0393 13.04 76.0526 13.0267 76.0633 13C76.0793 12.968 76.1033 12.9227 76.1353 12.864C76.1726 12.8 76.2313 12.7173 76.3113 12.616C76.3966 12.52 76.4553 12.4427 76.4873 12.384C76.5246 12.3253 76.5433 12.2667 76.5433 12.208C76.5433 12.1867 76.5379 12.1493 76.5273 12.096C76.5219 12.08 76.5033 12.0667 76.4713 12.056C76.4446 12.04 76.4179 12.0267 76.3913 12.016C76.3646 12.016 76.3379 12.024 76.3113 12.04C76.2846 12.0507 76.2659 12.056 76.2553 12.056C76.2286 12.056 76.1993 12.0427 76.1673 12.016L76.0393 11.856L75.9033 11.992C75.7806 12.1147 75.6766 12.28 75.5913 12.488C75.5113 12.696 75.4633 12.8853 75.4473 13.056C75.4419 13.1307 75.4526 13.184 75.4793 13.216C75.5113 13.2427 75.5566 13.2587 75.6153 13.264ZM77.8817 13.784C77.807 13.7253 77.7484 13.6693 77.7057 13.616C77.663 13.5627 77.6497 13.488 77.6657 13.392C77.6817 13.2107 77.7217 13 77.7857 12.76L77.8257 12.6C77.8417 12.456 77.9244 12.1733 78.0737 11.752C78.2284 11.3253 78.3564 11.0373 78.4577 10.888C78.511 10.8347 78.6017 10.808 78.7297 10.808C78.8364 10.808 78.911 10.8293 78.9537 10.872C78.9964 10.904 79.0177 10.9573 79.0177 11.032C79.0177 11.1547 78.9404 11.3707 78.7857 11.68L78.7057 11.848C78.6684 11.9173 78.6364 11.9813 78.6097 12.04C78.5884 12.0987 78.591 12.1253 78.6177 12.12C78.6764 12.0187 78.8177 11.88 79.0417 11.704C79.271 11.528 79.4284 11.4187 79.5137 11.376C79.551 11.3547 79.599 11.3333 79.6577 11.312C79.7164 11.2907 79.7564 11.2747 79.7777 11.264C79.8737 11.216 79.983 11.192 80.1057 11.192C80.191 11.192 80.263 11.2053 80.3217 11.232C80.3857 11.2533 80.4284 11.288 80.4497 11.336C80.455 11.3733 80.4684 11.4027 80.4897 11.424C80.5164 11.4453 80.535 11.4587 80.5457 11.464C80.5617 11.464 80.5724 11.472 80.5777 11.488C80.583 11.4987 80.5857 11.5067 80.5857 11.512C80.5857 11.5547 80.5484 11.6107 80.4737 11.68C80.399 11.744 80.3217 11.7787 80.2417 11.784C80.183 11.7893 80.1217 11.8027 80.0577 11.824C79.9937 11.8453 79.9297 11.872 79.8657 11.904L79.6577 12.024C79.4764 12.1147 79.3217 12.2053 79.1937 12.296C79.071 12.3813 78.9457 12.4933 78.8177 12.632C78.791 12.6587 78.751 12.696 78.6977 12.744C78.6497 12.792 78.607 12.848 78.5697 12.912C78.5324 12.9493 78.4924 13.048 78.4497 13.208C78.4124 13.3627 78.3937 13.4587 78.3937 13.496C78.3884 13.512 78.3777 13.544 78.3617 13.592C78.3457 13.64 78.3217 13.6827 78.2897 13.72C78.2417 13.7787 78.2017 13.8213 78.1697 13.848C78.1377 13.8747 78.103 13.888 78.0657 13.888C78.0124 13.888 77.951 13.8533 77.8817 13.784ZM82.2285 12.224C82.2125 12.2347 82.1538 12.2907 82.0525 12.392C82.1058 12.4667 82.1378 12.5093 82.1485 12.52L82.3885 12.896C82.5272 13.1093 82.6312 13.256 82.7005 13.336C82.7698 13.4107 82.8818 13.4933 83.0365 13.584C83.0525 13.6 83.0685 13.6267 83.0845 13.664C83.1005 13.7013 83.1058 13.7413 83.1005 13.784C83.0738 13.9227 82.9245 14 82.6525 14.016C82.5725 14.0107 82.5112 13.9973 82.4685 13.976C82.4312 13.9547 82.3485 13.896 82.2205 13.8C82.1192 13.704 81.9245 13.432 81.6365 12.984L81.4765 12.744C81.4072 12.9093 81.3725 13.0133 81.3725 13.056C81.3405 13.1467 81.3165 13.24 81.3005 13.336C81.2632 13.5013 81.2232 13.624 81.1805 13.704C81.1805 13.88 81.1085 13.968 80.9645 13.968C80.9165 13.968 80.8685 13.96 80.8205 13.944C80.7298 13.9173 80.6578 13.8773 80.6045 13.824C80.5565 13.7707 80.5325 13.6907 80.5325 13.584C80.5325 13.44 80.5752 13.2507 80.6605 13.016C80.6818 12.888 80.7032 12.784 80.7245 12.704C80.7512 12.6187 80.7912 12.536 80.8445 12.456C80.8872 12.328 80.9298 12.2107 80.9725 12.104C81.1165 11.6933 81.2098 11.4107 81.2525 11.256C81.3165 11.1173 81.3778 10.9707 81.4365 10.816C81.5005 10.6827 81.5938 10.4667 81.7165 10.168L81.8125 9.888C81.8872 9.648 81.9645 9.46933 82.0445 9.352C82.0605 9.33067 82.1085 9.256 82.1885 9.128C82.2258 9.05867 82.2818 9.024 82.3565 9.024C82.4365 9.024 82.4898 9.04533 82.5165 9.088C82.5965 9.12533 82.6578 9.192 82.7005 9.288C82.7432 9.37867 82.7592 9.45067 82.7485 9.504C82.7485 9.56267 82.7272 9.62667 82.6845 9.696C82.6685 9.712 82.6472 9.744 82.6205 9.792C82.5938 9.84 82.5618 9.89067 82.5245 9.944C82.5085 9.992 82.4872 10.0587 82.4605 10.144C82.4392 10.2293 82.4152 10.296 82.3885 10.344C82.3672 10.392 82.3378 10.4507 82.3005 10.52C82.2685 10.584 82.2472 10.632 82.2365 10.664C82.2098 10.7333 82.1645 10.8373 82.1005 10.976C82.0098 11.1787 81.9538 11.3147 81.9325 11.384L81.7805 11.8C81.8765 11.72 81.9245 11.68 81.9245 11.68C82.0738 11.5893 82.2552 11.456 82.4685 11.28C82.6872 11.104 82.8258 10.9867 82.8845 10.928C82.9005 10.9013 82.9432 10.888 83.0125 10.888C83.0552 10.888 83.0952 10.896 83.1325 10.912C83.2765 10.9493 83.3485 11.0587 83.3485 11.24C83.3752 11.352 83.2392 11.504 82.9405 11.696C82.8018 11.7867 82.6818 11.8773 82.5805 11.968C82.4365 12.0533 82.3192 12.1387 82.2285 12.224Z" fill="black"/>
<defs>
<clipPath id="clip0">
<rect width="14" height="14" fill="white" transform="translate(3 4)"/>
</clipPath>
</defs>
</svg>
